<svg xmlns="http://www.w3.org/2000/svg" xmlns:xlink="http://www.w3.org/1999/xlink" width="672" height="287pt" viewBox="0 0 504 287"><g id="graph0" class="graph" transform="scale(1 1) rotate(0) translate(4 283)"><title>dependencies</title><polygon fill="#fff" stroke="transparent" points="-4 4 -4 -283 500 -283 500 4 -4 4"/><text x="227.009" y="-42.4" fill="#000" font-family="sans-serif" font-size="14" font-weight="bold" text-anchor="start">Legend</text><polygon fill="#ffffb3" stroke="transparent" points="14 -10 14 -30 34 -30 34 -10 14 -10"/><text x="37.629" y="-15.4" fill="#000" font-family="sans-serif" font-size="14" text-anchor="start">Declarations</text><polygon fill="#8dd3c7" stroke="transparent" points="127 -10 127 -30 147 -30 147 -10 127 -10"/><text x="150.725" y="-15.4" fill="#000" font-family="sans-serif" font-size="14" text-anchor="start">Module</text><polygon fill="#80b1d3" stroke="transparent" points="213 -10 213 -30 233 -30 233 -10 213 -10"/><text x="236.781" y="-15.4" fill="#000" font-family="sans-serif" font-size="14" text-anchor="start">Bootstrap</text><polygon fill="#fdb462" stroke="transparent" points="310 -10 310 -30 330 -30 330 -10 310 -10"/><text x="333.673" y="-15.4" fill="#000" font-family="sans-serif" font-size="14" text-anchor="start">Providers</text><polygon fill="#fb8072" stroke="transparent" points="406 -10 406 -30 426 -30 426 -10 406 -10"/><text x="429.726" y="-15.4" fill="#000" font-family="sans-serif" font-size="14" text-anchor="start">Exports</text><g id="clust1" class="cluster"><title>cluster_AppModule</title><polygon fill="none" stroke="#000" stroke-dasharray="1 5" points="186 -146 186 -271 310 -271 310 -146 186 -146"/></g><g id="clust3" class="cluster"><title>cluster_AppModule_imports</title><polygon fill="none" stroke="#000" points="194 -154 194 -206 302 -206 302 -154 194 -154"/></g><g id="clust7" class="cluster"><title>cluster_TasksModule</title><polygon fill="none" stroke="#000" stroke-dasharray="1 5" points="169 -70 169 -138 327 -138 327 -70 169 -70"/></g><g id="clust12" class="cluster"><title>cluster_TasksModule_providers</title><polygon fill="none" stroke="#000" points="177 -78 177 -130 319 -130 319 -78 177 -78"/></g><g id="node1" class="node"><title>TasksModule</title><polygon fill="#8dd3c7" stroke="#000" points="294.206 -198 291.206 -202 270.206 -202 267.206 -198 201.794 -198 201.794 -162 294.206 -162 294.206 -198"/><text x="248" y="-175.8" fill="#000" font-family="Times,serif" font-size="14" text-anchor="middle">TasksModule</text></g><g id="node2" class="node"><title>AppModule</title><polygon fill="#8dd3c7" stroke="#000" points="289.657 -263 286.657 -267 265.657 -267 262.657 -263 206.343 -263 206.343 -227 289.657 -227 289.657 -263"/><text x="248" y="-240.8" fill="#000" font-family="Times,serif" font-size="14" text-anchor="middle">AppModule</text></g><g id="edge1" class="edge"><title>TasksModule-&gt;AppModule</title><path fill="none" stroke="#000" d="M248,-198.1061C248,-198.1061 248,-216.991 248,-216.991"/><polygon fill="#000" stroke="#000" points="244.5 -216.991 248 -226.991 251.5 -216.991 244.5 -216.991"/></g><g id="node3" class="node"><title>TasksService</title><ellipse cx="248" cy="-104" fill="#fdb462" stroke="#000" rx="62.535" ry="18"/><text x="248" y="-99.8" fill="#000" font-family="Times,serif" font-size="14" text-anchor="middle">TasksService</text></g><g id="edge2" class="edge"><title>TasksService-&gt;TasksModule</title><path fill="none" stroke="#000" d="M248,-122.0109C248,-122.0109 248,-151.855 248,-151.855"/><polygon fill="#000" stroke="#000" points="244.5 -151.855 248 -161.855 251.5 -151.855 244.5 -151.855"/></g></g></svg>